<svg width="90" height="20" viewBox="0 0 90 20" fill="none" xmlns="http://www.w3.org/2000/svg">
<path d="M13.328 10.264C14.288 10.568 15.04 11.08 15.584 11.8C16.128 12.504 16.4 13.376 16.4 14.416C16.4 15.888 15.824 17.024 14.672 17.824C13.536 18.608 11.872 19 9.68 19H0.992V2.2H9.2C11.248 2.2 12.816 2.592 13.904 3.376C15.008 4.16 15.56 5.224 15.56 6.568C15.56 7.384 15.36 8.112 14.96 8.752C14.576 9.392 14.032 9.896 13.328 10.264ZM4.856 5.128V9.088H8.72C9.68 9.088 10.408 8.92 10.904 8.584C11.4 8.248 11.648 7.752 11.648 7.096C11.648 6.44 11.4 5.952 10.904 5.632C10.408 5.296 9.68 5.128 8.72 5.128H4.856ZM9.392 16.072C10.416 16.072 11.184 15.904 11.696 15.568C12.224 15.232 12.488 14.712 12.488 14.008C12.488 12.616 11.456 11.92 9.392 11.92H4.856V16.072H9.392ZM32.1876 6.088V19H28.6356V17.464C28.1396 18.024 27.5476 18.456 26.8596 18.76C26.1716 19.048 25.4276 19.192 24.6276 19.192C22.9316 19.192 21.5876 18.704 20.5956 17.728C19.6036 16.752 19.1076 15.304 19.1076 13.384V6.088H22.8516V12.832C22.8516 14.912 23.7236 15.952 25.4676 15.952C26.3636 15.952 27.0836 15.664 27.6276 15.088C28.1716 14.496 28.4436 13.624 28.4436 12.472V6.088H32.1876ZM48.4041 12.592C48.4041 12.64 48.3801 12.976 48.3321 13.6H38.5641C38.7401 14.4 39.1561 15.032 39.8121 15.496C40.4681 15.96 41.2841 16.192 42.2601 16.192C42.9321 16.192 43.5241 16.096 44.0361 15.904C44.5641 15.696 45.0521 15.376 45.5001 14.944L47.4921 17.104C46.2761 18.496 44.5001 19.192 42.1641 19.192C40.7081 19.192 39.4201 18.912 38.3001 18.352C37.1801 17.776 36.3161 16.984 35.7081 15.976C35.1001 14.968 34.7961 13.824 34.7961 12.544C34.7961 11.28 35.0921 10.144 35.6841 9.136C36.2921 8.112 37.1161 7.32 38.1561 6.76C39.2121 6.184 40.3881 5.896 41.6841 5.896C42.9481 5.896 44.0921 6.168 45.1161 6.712C46.1401 7.256 46.9401 8.04 47.5161 9.064C48.1081 10.072 48.4041 11.248 48.4041 12.592ZM41.7081 8.728C40.8601 8.728 40.1481 8.968 39.5721 9.448C38.9961 9.928 38.6441 10.584 38.5161 11.416H44.8761C44.7481 10.6 44.3961 9.952 43.8201 9.472C43.2441 8.976 42.5401 8.728 41.7081 8.728ZM63.5967 10.264C64.5567 10.568 65.3087 11.08 65.8528 11.8C66.3967 12.504 66.6687 13.376 66.6687 14.416C66.6687 15.888 66.0928 17.024 64.9408 17.824C63.8047 18.608 62.1407 19 59.9487 19H51.2607V2.2H59.4687C61.5167 2.2 63.0848 2.592 64.1728 3.376C65.2768 4.16 65.8288 5.224 65.8288 6.568C65.8288 7.384 65.6288 8.112 65.2287 8.752C64.8447 9.392 64.3007 9.896 63.5967 10.264ZM55.1247 5.128V9.088H58.9887C59.9488 9.088 60.6767 8.92 61.1727 8.584C61.6687 8.248 61.9167 7.752 61.9167 7.096C61.9167 6.44 61.6687 5.952 61.1727 5.632C60.6767 5.296 59.9488 5.128 58.9887 5.128H55.1247ZM59.6607 16.072C60.6847 16.072 61.4527 15.904 61.9648 15.568C62.4928 15.232 62.7568 14.712 62.7568 14.008C62.7568 12.616 61.7248 11.92 59.6607 11.92H55.1247V16.072H59.6607ZM69.4483 6.088H73.1923V19H69.4483V6.088ZM71.3203 4.288C70.6323 4.288 70.0723 4.088 69.6403 3.688C69.2083 3.288 68.9923 2.792 68.9923 2.2C68.9923 1.608 69.2083 1.112 69.6403 0.711999C70.0723 0.311999 70.6323 0.111999 71.3203 0.111999C72.0083 0.111999 72.5683 0.303999 73.0003 0.688C73.4323 1.072 73.6483 1.552 73.6483 2.128C73.6483 2.752 73.4323 3.272 73.0003 3.688C72.5683 4.088 72.0083 4.288 71.3203 4.288ZM82.9111 19.192C81.5511 19.192 80.3271 18.912 79.2391 18.352C78.1671 17.776 77.3271 16.984 76.7191 15.976C76.1111 14.968 75.8071 13.824 75.8071 12.544C75.8071 11.264 76.1111 10.12 76.7191 9.112C77.3271 8.104 78.1671 7.32 79.2391 6.76C80.3271 6.184 81.5511 5.896 82.9111 5.896C84.2711 5.896 85.4871 6.184 86.5591 6.76C87.6311 7.32 88.4711 8.104 89.0791 9.112C89.6871 10.12 89.9911 11.264 89.9911 12.544C89.9911 13.824 89.6871 14.968 89.0791 15.976C88.4711 16.984 87.6311 17.776 86.5591 18.352C85.4871 18.912 84.2711 19.192 82.9111 19.192ZM82.9111 16.12C83.8711 16.12 84.6551 15.8 85.2631 15.16C85.8871 14.504 86.1991 13.632 86.1991 12.544C86.1991 11.456 85.8871 10.592 85.2631 9.952C84.6551 9.296 83.8711 8.968 82.9111 8.968C81.9511 8.968 81.1591 9.296 80.5351 9.952C79.9111 10.592 79.5991 11.456 79.5991 12.544C79.5991 13.632 79.9111 14.504 80.5351 15.16C81.1591 15.8 81.9511 16.12 82.9111 16.12Z" fill="#252B42"/>
</svg>
