<svg width="17" height="17" viewBox="0 0 17 17" fill="none" xmlns="http://www.w3.org/2000/svg">
<path d="M13.328 8.264C14.288 8.568 15.04 9.08 15.584 9.8C16.128 10.504 16.4 11.376 16.4 12.416C16.4 13.888 15.824 15.024 14.672 15.824C13.536 16.608 11.872 17 9.68 17H0.992V0.199999H9.2C11.248 0.199999 12.816 0.591999 13.904 1.376C15.008 2.16 15.56 3.224 15.56 4.568C15.56 5.384 15.36 6.112 14.96 6.752C14.576 7.392 14.032 7.896 13.328 8.264ZM4.856 3.128V7.088H8.72C9.68 7.088 10.408 6.92 10.904 6.584C11.4 6.248 11.648 5.752 11.648 5.096C11.648 4.44 11.4 3.952 10.904 3.632C10.408 3.296 9.68 3.128 8.72 3.128H4.856ZM9.392 14.072C10.416 14.072 11.184 13.904 11.696 13.568C12.224 13.232 12.488 12.712 12.488 12.008C12.488 10.616 11.456 9.92 9.392 9.92H4.856V14.072H9.392Z" fill="#252B42"/>
</svg>
